<?xml version="1.0" encoding="UTF-8"?>
<svg class="" width="512" height="512" enable-background="new 0 0 512 512" version="1.1" viewBox="0 0 682.67 682.67" xml:space="preserve" xmlns="http://www.w3.org/2000/svg">
  <defs>
    <clipPath id="c">
      <path class="" d="M0 512h512V0H0Z" fill="#ff7a7a" data-original="#000000" />
    </clipPath>
  </defs>
  <mask id="d">
    <rect class="" width="100%" height="100%" fill="#fff" data-original="#ffffff" />
    <path class="" transform="matrix(1.3333 0 0 -1.3333 269.84 440)" d="m0 0 36.382-103.947L72.244 0h42.313L51.768-182H21.321l-63.7 182z" fill="#fff" data-original="#ffffff" />
  </mask>
  <g mask="url(#d)">
    <g transform="matrix(1.3333 0 0 -1.3333 0 682.67)" clip-path="url(#c)">
      <path class="" transform="translate(434.89 360.89)" d="m0 0h-91c-22.091 0-40 17.909-40 40v91" fill="none" stroke="#ff7a7a" stroke-linejoin="round" stroke-miterlimit="10" stroke-width="40" data-original="#000000" />
      <path class="" transform="translate(69 222)" d="M0 0v230c0 22.092 17.908 40 40 40h195.444l130.445-131.111V0" fill="none" stroke="#ff7a7a" stroke-miterlimit="10" stroke-width="40" data-original="#000000" />
      <path class="" transform="translate(348 91)" d="m0 0c0 39.212 31.764 71 70.946 71 10.278 0 20.042-2.19 28.86-6.124" fill="none" stroke="#ff7a7a" stroke-miterlimit="10" stroke-width="40" data-original="#000000" />
      <path class="" transform="translate(423 91)" d="M0 0h67c0-39.212-31.87-71-71.184-71h.368C-43.13-71-75-39.212-75 0" fill="none" stroke="#ff7a7a" stroke-miterlimit="10" stroke-width="40" data-original="#000000" />
      <path class="" transform="translate(128 162)" d="M0 0h-68.5C-88.106 0-104-15.894-104-35.5S-88.106-71-68.5-71h34C-14.894-71 1-86.894 1-106.5S-14.894-142-34.5-142H-124" fill="none" stroke="#ff7a7a" stroke-miterlimit="10" stroke-width="40" data-original="#000000" />
      <path class="" transform="translate(202.38 182)" d="m0 0 36.382-103.947L72.244 0h42.313L51.768-182H21.321l-63.7 182z" fill="#ff7a7a" data-original="#000000" />
    </g>
  </g>
</svg>
